<?xml version="1.0" standalone="no"?>
<!DOCTYPE svg PUBLIC "-//W3C//DTD SVG 20010904//EN"
 "http://www.w3.org/TR/2001/REC-SVG-20010904/DTD/svg10.dtd">
<svg version="1.0" xmlns="http://www.w3.org/2000/svg"
 width="499.000000pt" height="499.000000pt" viewBox="0 0 499.000000 499.000000"
 preserveAspectRatio="xMidYMid meet">
<metadata>
Created by potrace 1.16, written by Peter Selinger 2001-2019
</metadata>
<g transform="translate(0.000000,499.000000) scale(0.100000,-0.100000)"
fill="#000000" stroke="none">
<path d="M2219 4895 c-3 -2 -47 -9 -99 -15 -68 -8 -107 -19 -138 -36 -23 -14
-59 -31 -80 -39 -20 -7 -86 -34 -147 -59 -60 -25 -116 -46 -124 -46 -8 0 -58
-44 -110 -99 -53 -54 -107 -101 -121 -104 -44 -11 -67 -42 -75 -99 -5 -41 -15
-61 -40 -88 -18 -19 -54 -72 -80 -117 -40 -70 -50 -97 -61 -175 -8 -51 -19
-97 -24 -102 -15 -15 -12 -54 6 -82 10 -14 23 -62 31 -107 16 -99 37 -417 38
-578 0 -113 -1 -116 -29 -149 -27 -33 -28 -38 -23 -105 5 -75 25 -134 38 -114
4 7 2 20 -4 30 -9 14 -9 21 0 30 8 8 15 -4 28 -47 18 -64 30 -60 41 13 8 52
24 47 24 -8 0 -22 7 -56 15 -76 8 -19 15 -49 15 -65 0 -17 13 -48 30 -71 17
-24 38 -76 50 -122 12 -44 25 -96 30 -115 8 -28 6 -40 -9 -60 -19 -26 -20 -27
-77 -29 -23 -1 -33 -5 -28 -12 5 -8 30 -10 79 -6 l72 7 22 -63 c40 -113 94
-223 188 -384 21 -36 25 -58 28 -140 2 -60 10 -113 19 -135 9 -21 16 -44 16
-53 0 -20 31 -80 62 -121 40 -54 119 -135 228 -234 57 -52 129 -120 158 -150
102 -103 217 -225 245 -258 32 -38 41 -39 65 -10 9 12 62 69 118 127 168 176
354 382 413 456 86 108 116 162 142 258 14 51 29 87 36 87 9 0 13 17 13 53 0
76 32 191 78 283 45 90 73 168 98 269 9 39 22 73 28 77 6 4 31 8 55 8 47 0
104 29 121 60 13 24 13 30 -1 30 -5 0 -8 -3 -5 -8 2 -4 -2 -16 -10 -26 -10
-15 -27 -20 -61 -20 -46 -1 -47 0 -54 34 -4 19 -3 37 1 40 5 3 11 27 14 52 5
47 21 88 34 88 5 0 14 -6 20 -12 10 -10 15 -10 22 2 28 49 57 80 71 76 12 -2
16 7 17 43 2 25 5 63 8 83 2 20 0 39 -6 43 -5 3 -10 -1 -10 -9 0 -30 -16 -16
-31 27 -19 50 -14 105 12 129 17 17 18 16 25 -30 5 -26 7 -51 5 -57 -1 -5 4
-3 12 5 21 22 67 155 67 195 0 30 -5 37 -40 55 -23 12 -43 26 -45 33 -3 7 -12
71 -20 142 -9 72 -20 166 -26 210 -5 44 -6 141 -3 217 5 104 3 157 -9 225 -9
48 -21 123 -27 167 -11 88 -38 157 -74 193 -14 14 -28 38 -31 55 -5 19 -18 36
-38 47 -16 9 -44 28 -61 42 -17 14 -49 36 -71 49 -22 12 -58 41 -81 64 -85 86
-222 180 -349 240 -70 33 -223 68 -350 81 -96 9 -261 15 -266 10z m31 -650
c19 -3 44 -9 55 -12 11 -4 47 -7 81 -7 49 -1 67 -6 95 -26 37 -28 75 -31 123
-11 23 9 33 9 52 -4 13 -8 33 -15 44 -15 12 0 29 -4 39 -10 10 -5 63 -11 118
-14 151 -8 222 -48 280 -156 29 -53 40 -97 47 -190 2 -25 8 -61 14 -80 34
-108 65 -186 78 -197 9 -6 14 -19 12 -29 -2 -13 3 -19 17 -19 14 0 20 -7 21
-22 3 -49 -78 -38 -120 17 -21 28 -44 44 -90 61 -56 21 -76 22 -261 21 -110 0
-225 -6 -255 -13 -30 -6 -64 -12 -75 -13 -28 -2 -45 -14 -45 -33 0 -9 -14 -28
-31 -42 -16 -14 -31 -36 -32 -48 -1 -20 -7 -23 -44 -23 -33 0 -49 7 -75 31
-18 16 -48 37 -65 46 -18 8 -33 19 -33 24 0 5 -6 9 -14 9 -7 0 -19 7 -26 15
-7 8 -31 15 -54 16 -144 4 -279 1 -331 -9 -33 -6 -83 -15 -111 -20 -28 -4 -60
-16 -70 -26 -13 -14 -19 -15 -22 -6 -3 9 -11 5 -23 -11 l-19 -24 -1 30 c-1 17
-3 22 -6 13 -2 -10 -11 -18 -19 -18 -8 0 -14 -7 -14 -15 0 -9 6 -12 15 -9 18
7 19 -8 3 -52 -10 -29 -18 -34 -54 -40 -59 -9 -82 12 -48 43 14 12 24 34 24
48 0 15 4 24 10 20 6 -3 10 -1 10 4 0 6 -6 11 -12 12 -7 0 -2 4 10 10 13 5 28
7 33 4 5 -4 6 7 3 23 -3 17 -1 32 5 36 5 4 8 13 4 21 -3 9 0 22 7 30 9 11 13
63 14 172 1 142 3 158 19 161 9 2 17 10 17 17 0 8 14 28 31 46 30 31 42 32 93
13 10 -4 19 3 27 20 11 22 17 25 43 21 38 -7 95 15 110 42 13 23 122 116 148
126 10 3 20 2 23 -4 4 -5 20 1 37 16 16 14 39 27 51 30 43 9 72 12 87 9 8 -2
31 -6 50 -9z m710 -994 c12 -23 14 -102 3 -100 -5 1 -25 1 -45 0 l-38 -1 0
-55 0 -55 45 0 44 0 3 58 3 57 40 0 40 0 3 -52 3 -53 -33 0 c-46 0 -53 -8 -53
-65 l0 -50 -41 -3 -42 -3 -7 55 -6 56 -44 0 -44 0 -3 53 -3 52 -42 3 c-47 3
-58 20 -51 78 3 27 6 29 43 29 l40 0 3 -52 3 -53 51 0 51 0 -5 44 c-3 24 -1
51 4 60 13 23 65 21 78 -3z m-484 -23 c4 -7 11 -54 15 -106 4 -51 10 -96 14
-100 4 -4 23 -7 43 -7 37 0 37 0 40 -45 4 -58 16 -71 61 -68 l36 3 3 -54 3
-54 167 8 c92 4 239 10 327 14 l160 6 3 53 3 52 39 0 c38 0 38 0 35 -37 -12
-129 -17 -169 -25 -184 -5 -9 -11 -48 -14 -85 -2 -38 -7 -76 -11 -86 -9 -22
-42 -29 -55 -13 -8 10 -30 13 -73 10 -205 -13 -230 -6 -371 97 -43 32 -82 55
-87 52 -5 -3 -7 -9 -4 -14 3 -4 -1 -10 -8 -13 -8 -3 -22 -21 -31 -41 -9 -20
-25 -36 -34 -37 -69 -5 -251 -10 -317 -9 -63 1 -86 5 -107 20 -30 22 -69 26
-99 10 -10 -6 -42 -12 -69 -13 -54 -2 -70 9 -70 49 0 12 -6 27 -14 33 -15 12
-67 -25 -124 -89 -17 -19 -43 -48 -57 -65 -22 -24 -34 -29 -68 -29 -38 0 -84
13 -130 36 -27 13 -160 39 -174 34 -7 -3 -12 0 -10 7 1 7 -7 12 -18 12 -15 0
-23 10 -31 40 -7 22 -21 72 -33 110 -21 70 -33 216 -18 231 12 13 21 -5 27
-54 l5 -47 45 -5 44 -5 4 -45 c2 -25 7 -48 10 -52 4 -3 68 -3 142 2 74 5 212
9 306 10 120 0 175 4 187 13 10 7 17 30 19 57 3 42 5 45 33 48 42 5 57 20 55
56 -4 61 -2 66 29 66 17 0 33 6 38 13 4 6 8 57 8 112 l0 100 40 6 c68 10 104
9 111 -3z m-805 -72 c6 -52 1 -57 -51 -60 -30 -1 -30 -1 -30 -59 l0 -58 43 3
42 3 3 58 3 58 42 -3 42 -3 3 -52 3 -53 43 0 c42 0 44 -1 50 -35 11 -57 1 -75
-44 -75 l-38 0 -7 56 -7 55 -41 -3 -42 -3 -5 -55 -5 -55 -40 0 -40 0 -3 53 -3
52 -43 0 -44 0 -7 55 -6 55 -45 0 -44 0 0 56 0 55 43 -3 42 -3 3 -52 3 -53 45
0 44 0 0 53 c0 30 3 57 7 61 4 4 23 6 43 4 34 -3 35 -4 41 -52z m431 -738 c10
-14 18 -31 18 -37 0 -6 9 -11 20 -11 11 0 20 -6 20 -12 0 -9 3 -8 10 2 7 12
12 12 22 2 9 -9 9 -12 -1 -12 -7 0 -9 -4 -6 -10 9 -15 40 -12 74 7 28 17 32
17 58 2 15 -9 48 -19 73 -23 37 -5 53 -2 90 19 64 36 78 42 143 56 59 13 88
33 120 83 16 24 23 27 50 22 39 -8 57 -30 56 -70 -1 -17 2 -65 6 -107 5 -43 4
-79 -1 -82 -5 -3 -32 -1 -59 5 -28 5 -94 11 -148 13 -56 2 -104 9 -113 15 -11
10 -19 9 -36 -2 -41 -26 -69 -28 -115 -7 -55 25 -134 27 -237 7 -74 -15 -81
-15 -102 0 -27 20 -30 44 -9 62 14 11 13 14 0 24 -22 16 -22 91 -1 115 9 10
16 24 17 32 0 8 7 -4 16 -26 9 -22 25 -52 35 -67z m-274 -286 c2 -12 8 -22 13
-22 5 0 9 -11 9 -24 0 -29 29 -39 72 -24 28 10 33 8 49 -13 9 -13 27 -35 39
-49 55 -63 78 -210 33 -210 -12 0 -14 -8 -8 -37 4 -21 10 -40 14 -43 5 -3 14
-15 20 -28 7 -13 31 -32 54 -41 36 -16 48 -17 83 -6 28 8 47 9 59 3 34 -20
137 -18 184 2 24 11 48 20 54 20 6 0 21 10 34 22 13 12 23 16 23 10 0 -7 5
-12 11 -12 6 0 9 7 5 15 -3 9 0 15 9 15 16 0 74 54 98 93 15 23 15 27 2 27
-18 0 -19 7 -4 49 14 40 9 45 -27 26 -16 -8 -35 -15 -42 -15 -7 0 -32 -9 -56
-19 -32 -15 -62 -19 -129 -19 -48 1 -87 4 -87 8 0 3 -21 12 -47 18 -59 16
-159 76 -180 108 -9 14 -25 24 -38 24 -12 0 -28 7 -35 15 -11 13 -6 15 39 15
l51 0 -2 45 c-2 55 3 61 41 46 22 -10 34 -10 50 -1 15 8 27 8 41 0 16 -8 26
-7 42 5 29 19 53 19 89 -2 26 -15 30 -15 46 -1 28 25 56 29 86 13 25 -13 32
-13 49 0 18 12 25 12 48 0 24 -13 30 -13 40 0 7 8 19 15 26 15 19 0 36 -45 28
-74 -9 -37 46 -40 111 -7 48 26 69 28 169 23 28 -2 29 -3 22 -48 -3 -26 -11
-53 -16 -59 -6 -7 -11 -39 -13 -72 -2 -59 -1 -60 48 -130 7 -10 5 -17 -7 -24
-10 -5 -20 -26 -24 -47 -11 -58 -70 -136 -168 -222 -54 -48 -128 -58 -336 -47
-58 3 -131 9 -162 13 -48 5 -62 3 -92 -15 -22 -14 -37 -18 -41 -11 -3 5 -21
10 -40 10 -31 0 -109 50 -141 91 -14 17 -51 138 -60 196 -3 23 -15 51 -25 62
-11 12 -16 27 -12 37 4 12 3 15 -5 10 -8 -5 -12 4 -12 28 0 19 -5 36 -12 38
-6 2 -12 13 -13 24 -1 10 -6 31 -10 47 -5 18 -3 33 6 44 12 14 12 16 -2 11
-10 -4 -31 5 -53 24 -29 24 -36 36 -36 64 0 28 4 35 18 32 9 -2 18 -13 20 -26z"/>
<path d="M1619 1453 c-19 -21 -52 -67 -74 -103 -100 -166 -119 -181 -265 -219
-97 -25 -464 -127 -745 -206 -104 -29 -266 -80 -360 -112 l-170 -59 -3 -377
-2 -377 895 0 895 0 -6 128 c-3 70 -10 140 -15 155 -4 16 -16 94 -24 175 -9
81 -27 201 -41 267 -34 162 -64 375 -63 460 0 39 6 118 13 178 6 59 9 112 6
117 -4 7 -21 -5 -41 -27z"/>
<path d="M3237 1477 c-3 -8 1 -45 8 -83 35 -186 28 -279 -46 -572 -22 -86 -46
-215 -55 -285 -19 -168 -46 -277 -89 -366 -37 -75 -48 -145 -20 -121 8 7 26
36 41 66 14 30 29 54 32 54 2 0 2 -38 -2 -85 l-7 -85 945 0 946 0 0 328 0 327
-268 87 c-585 192 -666 220 -914 312 -142 52 -270 102 -285 110 -57 30 -118
93 -178 186 -77 118 -101 146 -108 127z"/>
<path d="M2510 681 c0 -5 7 -11 15 -15 8 -3 15 -12 15 -20 0 -22 -47 -55 -70
-49 -11 3 -27 0 -35 -7 -17 -14 -36 -5 -29 14 18 47 -68 2 -151 -80 -63 -62
-79 -82 -134 -169 -25 -39 -52 -79 -61 -90 -24 -29 -95 -164 -73 -140 21 24
53 39 53 25 0 -14 20 -12 51 3 14 8 47 21 74 31 l49 16 53 -55 c29 -30 59 -55
67 -55 21 0 25 -21 10 -57 l-13 -33 125 0 c123 0 124 0 124 23 0 13 4 27 8 33
5 5 17 37 27 72 18 60 50 102 79 102 6 0 19 9 29 20 24 29 42 25 90 -17 23
-21 53 -44 66 -51 23 -14 24 -13 17 19 -9 47 -29 81 -134 233 -91 131 -177
226 -206 226 -7 0 -16 7 -20 15 -6 16 -26 21 -26 6z"/>
</g>
</svg>
